<?xml version="1.0" encoding="utf-8"?>
<!-- Generator: Adobe Illustrator 17.0.0, SVG Export Plug-In . SVG Version: 6.00 Build 0)  -->
<!DOCTYPE svg PUBLIC "-//W3C//DTD SVG 1.1//EN" "http://www.w3.org/Graphics/SVG/1.1/DTD/svg11.dtd">
<svg version="1.1" id="Layer_1" xmlns="http://www.w3.org/2000/svg" xmlns:xlink="http://www.w3.org/1999/xlink" x="0px" y="0px"
	 width="260.466px" height="277.686px" viewBox="0 0 260.466 277.686" enable-background="new 0 0 260.466 277.686"
	 xml:space="preserve">
<g id="background">
</g>
<g opacity="0.5">
	<path fill="#A47B8F" d="M8.028,129.77c-0.1-0.131-0.224-0.234-0.403-0.292C7.778,129.72,7.911,129.795,8.028,129.77z"/>
	<path fill="#A47B8F" d="M42.247,234.082l-1.095-0.796C41.796,233.881,42.086,234.064,42.247,234.082z"/>
	<path fill="#A47B8F" d="M28.552,67.023c-0.017,0.095,0.007,0.109,0.007,0.182c0.544-0.867,1.284-2.04,2.485-3.947L28.552,67.023z"
		/>
	<path fill="#A47B8F" d="M244.924,187.849l-0.625,1.433C244.59,188.64,244.817,188.24,244.924,187.849z"/>
	<path fill="#A47B8F" d="M132.438,271.445c0.445-0.207,1.212-0.325,1.951-0.486C133.441,271.06,132.682,271.133,132.438,271.445z"/>
	<path fill="#A47B8F" d="M56.235,45.551l-1.665,0.849C54.782,46.56,55.416,46.299,56.235,45.551z"/>
	<path fill="#A47B8F" d="M108.886,11.414c-0.061-0.03-0.085-0.065-0.201-0.093C108.607,11.398,108.72,11.416,108.886,11.414z"/>
	<path fill="#A47B8F" d="M84.533,18.458c-0.459,0.308-0.972,0.707-1.488,1.105C83.718,19.181,84.589,18.712,84.533,18.458z"/>
	<path fill="#A47B8F" d="M82.35,20.112c0.226-0.177,0.461-0.365,0.693-0.547C82.625,19.812,82.287,20.021,82.35,20.112z"/>
	<path fill="#A47B8F" d="M127.787,105.959c-1.76,1.34-2.861,2.893-3.944,4.463c0,0,0.227-0.282,0.567-0.708
		c0.328-0.431,0.814-0.989,1.317-1.542c0.501-0.559,1.002-1.115,1.377-1.533C127.513,106.231,127.787,105.959,127.787,105.959z"/>
	<path fill="#A47B8F" d="M129.356,42.636l0.408-0.317C129.351,42.465,129.295,42.563,129.356,42.636z"/>
	<path fill="#A47B8F" d="M129.137,111.752l-1.148,0.808C128.447,112.301,128.812,112.036,129.137,111.752z"/>
	<path fill="#A47B8F" d="M37.583,72.883c-0.463,1.803-2.66,4.8-2.168,5.029C36.211,76.177,37.795,73.985,37.583,72.883z"/>
	<path fill="#A47B8F" d="M98.196,79.776l-0.828,0.667C97.777,80.141,98.022,79.941,98.196,79.776z"/>
	<path fill="#A47B8F" d="M129.137,111.752l1.325-0.93c-0.174-0.003-0.37,0.046-0.562,0.08
		C129.683,111.2,129.431,111.489,129.137,111.752z"/>
	<path fill="#A47B8F" d="M128.354,213.424c-0.032-0.005-0.046-0.007-0.085-0.012c-0.186,0.013-0.327,0.022-0.519,0.036
		L128.354,213.424z"/>
	<path fill="#A47B8F" d="M142.011,214.686c-0.967,0.096-1.901,0.191-2.939,0.295C140.64,214.997,141.456,214.864,142.011,214.686z"
		/>
	<path fill="#A47B8F" d="M123.843,110.422c0,0-0.514,0.647-1.03,1.294c-0.479,0.657-0.959,1.312-0.959,1.312
		C122.594,112.144,123.226,111.283,123.843,110.422z"/>
	<path fill="#A47B8F" d="M202.673,102.839c0.259,0.446,0.433,0.882,0.657,1.292C203.089,103.554,202.893,103.123,202.673,102.839z"
		/>
	<path fill="#A47B8F" d="M122.916,271.516c-0.305-0.066-0.73-0.108-1.091-0.161C121.703,271.492,121.775,271.594,122.916,271.516z"
		/>
	<path fill="#A47B8F" d="M195.199,225.396l0.022-0.02c-0.003-0.003-0.003-0.003-0.008-0.01
		C195.211,225.379,195.196,225.393,195.199,225.396z"/>
	<path fill="#A47B8F" d="M192.423,228.804c1.151-0.746,2.305-2.387,2.775-3.407C194.179,226.3,193.336,227.268,192.423,228.804z"/>
	<path fill="#A47B8F" d="M202.114,219.165c-0.139,0.106-0.245,0.189-0.41,0.313C201.863,219.375,201.989,219.282,202.114,219.165z"
		/>
	<path fill="#A47B8F" d="M126.11,254.511c0,0.018-0.012,0.046,0.002,0.065c0.023-0.023,0.038-0.036,0.046-0.056L126.11,254.511z"/>
	<path fill="#A47B8F" d="M142.592,252.318c0.315,0.05,0.735,0.051,1.184,0.015C143.472,252.278,143.078,252.263,142.592,252.318z"/>
	<path fill="#A47B8F" d="M225.155,183.382c-0.003,0.018,0.008,0.025,0.015,0.028c0.015-0.038,0.018-0.048,0.033-0.083
		C225.183,183.352,225.17,183.365,225.155,183.382z"/>
	<path fill="#A47B8F" d="M168.927,67.466c7.426,1.297,15.836,3.629,23.602,7.346c1.887,1.008,3.85,1.914,5.679,2.992
		c1.776,1.151,3.631,2.181,5.296,3.4c1.619,1.262,3.322,2.44,4.773,3.709c1.395,1.299,2.778,2.541,4.052,3.788
		c2.917,1.39,6.188,4.996,9.059,8.819l-1.076,1.33l2.523,3.02c0.42,1.592-1.864-2.368-0.904,0.315c0,0,0.43,0.171,0.819,0.367
		c0.398,0.196,0.796,0.39,0.796,0.39c-0.212,0.299,1.007,2.488,1.519,4.059c0.556,1.556,0.653,2.344-1.256-0.287
		c0,0,0.4,0.836,0.997,2.091c0.65,1.232,1.279,2.977,2.005,4.681c1.304,3.466,2.254,7.056,2.254,7.056
		c0.718,3.196,1.834,1.547,2.155,5.249c-0.353,0.824-0.539-1.247-1.071-0.834c0.423,5.468,1.312,8.522,2.387,11.637
		c0.874,3.107,1.931,6.291,0.997,11.635l-0.143-0.93c0.343,1.863-0.284,5.336-0.018,5.415c1.798-1.158-0.574-2.047,0.702-5.208
		c1.425,0.42,0.282,4.203,1.355,4.132c-0.401,1.251-0.496,2.271-0.539,3.271c-0.038,0.998,0.038,1.98-0.153,3.105
		c-1.604,3.611-2.533,9.141-4.498,11.584c-0.214,1.912,0.44,4.427-1.101,8.301c-2.14,2.317-0.66-1.028-2.66,2.485l0.479,0.924
		c-1.461,2.971-1.521,2.367-1.788,2.106c-1.582,3.143-0.274,3.156-2.856,6.827l0.478-2.554c-1.27,3.03-2.042,4.141-4.493,7.991
		c-0.333-0.33,0.668-1.854,1.44-2.952c-2.242,1.523-1.79,3.868-2.604,4.954c0.498-0.126,2.342-2.732,2.186-0.989
		c-1.315,1.863-1.76,4.709-3.483,5.516l0.768-2.506c-2.171,4.291-0.594,2.704-4.098,6.946c0.126-0.277-0.119-0.284-0.182-0.484
		c-1.31,3.379-4.871,6.392-8.424,10.066l0.494-0.866c-1.171,1.725-1.45,3.042-2.279,3.802c2.393-1.778,1.999-1.057,2.757-0.712
		c-3.679,1.873-3.02,5.465-8.384,9.218c-0.237-0.43,0.561-1.839,2.171-2.699c0.617-2.539,0.071-3.488,2.264-6.697
		c-1.403,1.954-3.337,4.005-3.301,3.181l0.343,1.443c-1.015,1.042-1.922,1.75-2.745,2.476c0.07,1.022,3.102-0.993,0.916,1.67
		c-2.599,2.878-2.383,0.363-2.458,1.198c-3.735,3.729-0.755,2.521-5.045,5.309c0.338-0.398,0.984-1.176,1.406-1.352
		c-3.161,1.858-7.049,5.563-8.825,4.828c0.247-0.589,0.085-0.998,1.27-1.677l0.09,0.226c1.282-1.61,0.653-1.066-0.264-0.355
		c-0.924,0.708-2.181,1.518-2.05,0.61c0.345,0.269-0.557,1.057-1.793,1.924c-1.244,0.849-2.859,1.703-3.855,2.236l1.101,0.435
		c-5.17,6.23-0.564-1.745-6.868,2.14c-3.893,2.7,1.705-0.577-0.562,1.325c-1.456,0.658-2.541,0.934-3.78,1.285
		c-1.237,0.36-2.576,0.917-4.647,1.957c-0.667,0.073-1.652,0.244-2.539,0.279c-0.899,0.002-1.695-0.124-1.979-0.584
		c-2.435,1.446-8.052,2.158-9.293,3.513c1.191-0.09,2.06-0.279,2.77-0.509c0.703-0.265,1.252-0.569,1.828-0.864
		c1.158-0.582,2.4-1.128,5.231-1.458l-1.116,1.503c-1.819,0.677-3.908,1.373-5.847,2.075c-1.967,0.581-3.788,1.188-5.135,1.247
		c0.571,0.081,0.869,0.287,0.585,0.576c-1.329,0.39-2.412,0.77-3.372,1.133c-0.972,0.332-1.823,0.622-2.669,0.911
		c-1.697,0.604-3.43,0.957-6.137,1.139c-0.794-0.864,2.345-1.057,4.604-1.456c-3.531-0.317-3.593,0.496-8.955,0.552
		c-0.33-0.808,3.589-0.207,4.127-1.07c0,0-1.456,0.173-2.916,0.35c-1.46,0.204-2.926,0.277-2.926,0.277
		c0.023-0.05-0.003-0.106-0.005-0.169c-0.4,0.698-1.533,0.693-2.999,0.581c-1.466-0.204-3.257-0.483-5.057-0.386
		c-8.436-0.707-9.986,0.683-14.994,0.738c-1.184-0.673-1.463-1.103-0.849-1.31c1.929,1.103,1.678,0.547,2.475,0.372
		c-1.436-0.28-2.912-0.99-3.792-1.642c-0.874-0.685-1.154-1.327-0.317-1.355c-4.475-0.944,1.378,1.178-1.418,0.778
		c0,0-1.503-0.481-3.004-0.96c-1.476-0.559-2.952-1.121-2.952-1.121c0.448,0.916,2.528,1.833-0.778,1.207
		c-1.36-0.358-2.305-0.804-3.359-1.257c-1.045-0.474-2.203-0.957-3.826-1.819c0.622-0.08-0.566-1.471,1.863-0.231
		c-1.455-1.033-3.906-2.206-5.153-2.135c3.214,2.524-6.047-2.677-3.981-0.269c0-0.002-0.811-0.622-1.589-1.325
		c-0.783-0.683-1.566-1.363-1.566-1.363c0.785,0.509,1.118,0.164,2.208,1.012c-0.42-1.534-2.987-1.501-4.253-2.204
		c-1.078-1.003-4.107-3.223-4.122-3.737c-1.229-0.503-3.719-2.48-3.843-3.276c-1.592-1.052-0.542,0.456-1.181,0.375l-4.961-4.233
		c0.119-0.673,0.789-2.254,1.677-1.808c-1.111-0.562-1.569-0.373-2.096-0.34c-0.527,0.035-1.156-0.063-2.432-1.405
		c2.274,0.637-2.843-4.049,0.27-2.898c-0.446-1.033-1.718-2.571-3.201-4.107c-1.474-1.541-2.911-3.306-4.112-4.412
		c-2.005-0.945,1.894,3.01,1.063,3.481c-1.557-1.7-2.878-2.896-4.049-3.83c-1.181-0.925-2.201-1.596-3.052-2.314
		c-1.76-1.382-3.292-2.607-5.128-5.545l0.833,1.607c-0.741-0.808-1.275-1.39-1.688-1.839c-0.372-0.478-0.64-0.813-0.886-1.093
		c-0.493-0.561-0.896-0.911-1.886-1.8c0.803,0.219,0.831-1.256,0.199-3.486c-0.735-2.181-1.7-5.342-3.365-8.426
		c-0.791-0.295,0.736,4.024-0.59,3.405l-2.246-4.185c-0.066-0.347,0.34,0.043,0.743,0.529c-1.194-1.788-1.448-3.835-1.821-5.394
		c-0.343-1.579-0.653-2.747-1.514-3.082c0,0,0.007-1.139,0.013-2.281c0.093-1.156,0.184-2.31,0.184-2.31l-0.199,1.843
		c-0.707-0.37-2.256-4.856-2.76-5.737c-1.075-2.219-1.423-3.853-1.591-5.233c-0.168-1.383-0.108-2.531-0.036-3.896
		c-0.285,0.907-0.881,3.221-1.899-0.506c1.672-0.289-0.592-8.069,0.373-8.096c-0.124-0.761-0.141-1.836-0.226-2.727
		c-0.078-0.892-0.134-1.617-0.541-1.669l1.181,0.141c-0.824-0.095-1.317-1.547-1.683-3.521c-0.333-1.975-0.692-4.455-0.758-6.621
		c2.216,0.944-0.174-4.762,1.834-6.631c-1.544-0.854-0.093-7.63-1.342-8.5c0.05-1.675,0.513-2.382,0.972-2.772
		c0.459-0.388,0.944-0.461,1.239-0.846l-0.345-1.594c0.463-0.783,0.932-2.7,1.405-4.865c0.547-2.151,1.252-4.523,1.843-6.268
		l-0.594-3.652l0.93-1.078c-0.181-0.609,0.4-3.417-0.554-1.838l0.577-1.773c-0.678-0.27-0.597-0.932-0.295-1.999
		c0.317-1.065,0.771-2.551,1.156-4.409c0.511-0.746,0.763-0.416,0.675,0.41c0.637-1.753,1.075-0.761,1.871-1.557
		c-0.801,1.154-0.202-7.23-2.506-2.677c-0.663,0.143-0.106-2.849,0.811-4.5l1.66-0.556l-0.383-2.576
		c1.008-2.762,2.201-3.599,3.355-5.651c-0.531,1.081-0.428,2.606,0.008,3.087c0.227,0.245,0.557,0.244,0.98-0.171
		c0.423-0.415,0.909-1.254,1.634-2.602c-0.7,1.448-0.922,2.667-1.113,3.68c-0.181,1.018-0.272,1.859-0.476,2.67
		c0.546-1.136,0.907-1.654,0.642,0.355c1.541-4.483-0.191-1.813,1.688-6.114c0.929,0.735,1.873-0.265,4.083-3.672l-2.155,2.304
		c-0.061-0.192-0.058-0.421-0.012-0.66c-0.644,0.97-0.959,1.181-1.474,1.202c0.43-0.804,1.227-5.528,2.213-5.896
		c-1.856,1.7-1.319-0.37-0.34-2.478c0.975-2.103,2.151-4.367,0.881-3.334c-0.005-0.645,1.69-3.568,2.36-3.544
		c-0.672,1.955,0.005,1.483,0.881,0.662c0.843-0.846,2.095-1.902,2.221-1.428c0.576-1.393-2.524,2.063-1.74,0.189
		c1.315-1.984,2.916-2.992,3.972-3.85l-0.391,0.93l2.523-2.654c-0.114-0.844-2.835,2.292-1.131-0.637
		c0.637-0.63,2.627-3.354,2.899-3c-0.383,1.735,1.166,1.489-0.444,3.808c1.392-1.868,6.052-7.693,3.297-6.08l1.821-2.151
		c-1.484,1.028-5.349,4.324-1.836-0.191l0.144,0.194c0,0,0.433-0.942,0.982-1.783c0.527-0.869,1.053-1.738,1.053-1.738l1.642-0.839
		c-0.25-0.169-0.012-0.811,1.025-1.864c0.517-0.035,1.576-0.94,1.826-0.526c2.999-3.017,2.436-3.121,2.592-3.777
		c1.732-1.664,2.561-2.08,2.186-0.818c2.423-2.188,6.925-5.682,9.043-6.538c3.145-3.075-0.857,0.348,0.703-1.844
		c2.106-0.31,5.269-1.99,8.558-4.268c1.654-1.128,3.513-2.115,5.241-3.223c0.876-0.539,1.738-1.071,2.572-1.584
		c0.828-0.527,1.645-1.002,2.46-1.357c-2.536-0.839,1.693-0.952,2.244-2.962c-1.174,1.125,6.765-1.436,1.236,1.514l3.412-1.685
		c2.72-0.119-5.447,3.171-1.358,2.854c0.955-0.431,1.781-0.937,2.564-1.476c0.781-0.542,1.571-0.984,2.365-1.489
		c1.601-0.977,3.352-1.911,5.813-2.403c-0.605,0.872,0.272,0.463,1.202,0.051c0.94-0.385,1.969-0.668,1.551,0.134
		c-0.889,0.637-2.204,1-3.505,1.534l0.894-0.045c2.176-0.713,3.478-0.937,4.163-1.285c0.698-0.312,0.831-0.576,0.821-0.846
		c-0.017-0.537-0.619-1.088,1.657-2.098c5.5-1.539,4.559-0.109,5.002,0.406c0.914,0.104,3.672-0.536,5.087-1.1
		c-3.254,1.305-6.449,0.234-5.037-0.798c2.748,1.018,8.361-1.231,9.864-2.05c-4.143-0.095-5.576,0.114-6.926,0.302
		c-0.677,0.093-1.34,0.179-2.332,0.219c-0.498,0.012-1.076,0.023-1.776,0.04c-0.695,0.048-1.514,0.093-2.504,0.129
		c-0.944,0.702-0.461,1.914-5.084,2.509c2.664-1.315-0.378-0.645-1.242-0.647c0.537,0.257-0.232,0.501-1.28,0.819
		c-1.03,0.373-2.35,0.788-2.972,1.163c-1.425-0.153,2.145-2.538-2.47-1.29l-0.279,1.937c-1.838,0.343,0.32-1.458-3.281,0.201
		c1.712-1.541-1.12-1.111,3.924-3.115c-6.709,0.526-9.006,4.339-13.277,6.818c0.421-0.302,0.373-0.534,0.785-0.839
		c-0.395,0.421-1.035,0.816-1.74,1.191c-0.683,0.418-1.41,0.861-2.038,1.246c-3.078,1.201,1.934-1.936,0.975-1.965l-4.705,2.576
		c-0.123,0.002-0.161-0.013-0.179-0.045c-1.13,0.876-2.229,1.645-2.883,1.503c1.125-1.239,1.403-2.048,2.143-2.962
		c0,0-1.108,0.939-2.214,1.876c-0.554,0.463-1.101,0.93-1.479,1.334c-0.386,0.386-0.645,0.644-0.645,0.644
		c0.232-0.834-4.47,1.703-1.279-0.856c0,0-1.745,1.199-3.49,2.398c-0.871,0.599-1.742,1.198-2.393,1.647
		c-0.663,0.431-1.06,0.786-1.06,0.786l-1.254-0.524c-1.501,1.41-1.403,1.625,0.612,0.267c-1.234,0.773-3.483,3.143-5.422,4.953
		c-0.483,0.454-0.957,0.866-1.378,1.229c-0.403,0.386-0.773,0.702-1.091,0.912c-0.639,0.421-1.078,0.428-1.169-0.269
		c-2.164,2.601-3.76,4.191-5.478,5.915c-1.612,1.826-3.382,3.748-5.931,6.84c1.73-2.591,0.26-1.552-1.144-0.478
		c-1.329,1.134-2.553,2.327-0.629-0.385c-2.871,2.644-2.407,4.103-4.176,6.551c-2.203,1.883-2.324,0.212-0.67-2.473l-1.906,3.156
		l-0.143-0.194c0,0-0.103,0.172-0.224,0.454c-0.123,0.279-0.287,0.653-0.449,1.027c-0.325,0.743-0.65,1.486-0.65,1.486
		c-2.451,2.365-1.367-0.114-3.518,2.637l0.421,1.206l-1.863,1.586c0.866-0.488-0.04,1.375-1.27,3.568l-0.171-0.169l-1.42,2.717
		c1.028-2.912-1.647,2.276-1.567,0.712c-1.441,2.204-1.35,2.327-3.39,6.614l1.015-0.411c-2.274,5.754-1.061-0.254-3.417,4.181
		l0.882,0.075c-2.095,2.989-3.112,5.911-3.999,8.588c-0.816,2.713-1.295,5.274-2.624,7.625c0.836-2.936-0.317-2.534-0.116-2.395
		c-0.624,2.226-1.683,5.067-2.324,8.054c-0.36,1.483-0.698,2.974-0.967,4.395c-0.134,0.712-0.25,1.403-0.343,2.067
		c-0.071,0.67-0.083,1.322-0.088,1.927c-1.514,1.431-1.947,1.755-3.475,6.493c-0.587,3.536-0.43,4.1,0.055,5.354
		c-0.458,1.678-0.763,4.151-1.008,6.213c-0.139,2.073-0.297,3.732-0.733,3.787c0.627,0.849-0.352,3.11,0.098,5.045l-0.381,0.388
		l0.841-0.269c-1.037,3.027-0.688,5.657-0.421,8.247c0.214,2.604,0.809,5.16,0.221,8.313l-0.297-1.055l0.511,2.584
		c-0.327,0.445-0.624-0.595-1.1-0.682c0,0,0.046,0.763,0.114,1.906c0.041,0.572,0.061,1.242,0.134,1.955
		c0.095,0.712,0.194,1.47,0.295,2.227c0.406,3.035,0.811,6.07,0.811,6.07l0.259-2.478c0.227,1.262,0.6,2.287,0.907,3.367
		c0.32,1.076,0.69,2.186,0.748,3.669c-2.264-4.518,0.834,3.964,0.088,4.954l-0.891-2.496c0.861,3.5,0.862,3.496,1.597,3.007
		c0.625,2.236,0.615,3.065,0.489,3.884c-0.085,0.808-0.109,1.564,0.944,3.498l-0.859-2.947c0.196-0.993,1.484,0.921,2.055,2.863
		c0.02,0.499,0.095,1.995-0.456,0.536c0.342,0.851,0.673,1.826,0.992,2.831c0.347,0.997,0.763,1.997,1.113,2.952
		c0.72,1.904,1.352,3.569,1.8,4.258c0.491,1.944-0.282,1.571-0.881,0.647c0.438,0.886,0.789,1.599,1.08,2.186
		c0.317,0.571,0.566,1.017,0.766,1.38c0.39,0.731,0.569,1.139,0.746,1.549c0.355,0.816,0.715,1.647,2.773,5.024l-0.471,0.1
		c0,0,0.421,0.542,0.844,1.086c0.463,0.517,0.927,1.035,0.927,1.035l1.128,3.821l-0.192-1.501c1.418,2.174,2.473,3.418,3.868,6.11
		c0,0-0.318-0.156-0.635-0.312c-0.302-0.169-0.602-0.337-0.602-0.337c2.198,2.946,3.261,4.787,4.282,6.624
		c0.521,0.912,1.053,1.805,1.758,2.786c0.763,0.937,1.743,1.931,3.06,3.107c0.214,0.446-0.66-0.241-1.11-0.597
		c2.528,2.125,3.085,3.246,3.682,4.37c0.299,0.561,0.602,1.121,1.164,1.793c0.61,0.624,1.491,1.352,2.891,2.267
		c-0.451-0.119-0.148,0.584-0.471,0.544l2.443,1.776l-0.814,0.506l2.685,0.713l0.657,1.992c-0.017,0.02,1.173,0.428,1.173,0.428
		c0.624,1.683,2.047,3.01,3.612,4.379c0.785,0.685,1.606,1.382,2.392,2.148c0.393,0.383,0.778,0.785,1.144,1.209
		c0.38,0.405,0.758,0.804,1.101,1.256l0.098-1.372c5.23,2.125,9.945,6.039,15.437,9.759c5.468,3.763,11.652,7.358,18.301,9.005
		l-0.532,0.798c0,0,1.418,0.236,2.858,0.358c1.426,0.144,2.851,0.289,2.851,0.289c2.694,1.582-1.959,0.242-1.194,0.974
		c2.972,0.662,3.702,0.355,4.496,0.267c0.403-0.063,0.831-0.113,1.586-0.058c0.75,0.07,1.833,0.211,3.561,0.448
		c3.397,1.26-1.357,0.486-3.082,0.413c1.625,0.274,3.468,0.445,5.354,0.708c1.892,0.232,3.866,0.347,5.762,0.554
		c1.904,0.131,3.748,0.224,5.402,0.378c1.655,0.091,3.125,0.182,4.284,0.348c0.106-0.121,0.395-0.28,0.156-0.34
		c4.346-0.383,10.084-0.184,14.818-0.942c-0.061,0.44-1.231,0.655-2.41,0.886c1.712-0.176,4.117-0.095,5.497-0.819
		c0,0-0.415,0.275-0.829,0.551c-0.415,0.284-0.841,0.526-0.841,0.526c1.841-0.202,4.501-0.766,6.782-1.297
		c2.276-0.554,4.229-0.901,4.735-0.579c-0.517-0.236-0.501-0.962,2.564-1.742c2.128,0.974,8.082-3.04,12.99-4.233
		c-0.411,0.584-3.888,1.936-2.898,1.584c2.544-0.498,4.384-2.07,6.263-3.311l-0.4,0.796c0,0,0.663-0.327,1.634-0.866
		c0.97-0.531,2.262-1.239,3.556-1.947c1.261-0.755,2.521-1.509,3.466-2.075c0.949-0.556,1.554-0.969,1.554-0.969
		c1.08,0.182,3.525-1.148,5.54-2.536c2.042-1.353,3.755-2.611,3.694-1.969c3.506-2.266-3.256,1.405,1.045-1.647
		c0.75-0.139,1.702-0.859,2.506-1.433c0.783-0.599,1.425-1.047,1.606-0.602l-0.395,0.418l2.952-2.211l-1.357,2.096
		c2.511-2,3.755-4.203,3.46-4.836c1.352-0.697,2.776-1.816,4.04-2.81c1.277-0.977,2.427-1.795,3.199-1.949l-0.69,0.907
		c1.518-1.475,3.04-2.662,4.505-3.752c1.44-1.113,2.868-2.077,4.208-3.062c1.317-1.007,2.574-2.005,3.722-3.12
		c1.116-1.143,2.113-2.413,2.946-3.908c0.431-0.284,0.564-0.086-0.146,0.68c0,0,0.906-0.954,1.755-1.957
		c0.862-0.993,1.725-1.985,1.725-1.985l-0.287,1.4c0,0,0.304-0.459,0.756-1.148c0.463-0.68,1.038-1.615,1.609-2.556
		c0.571-0.935,1.141-1.869,1.569-2.571c0.431-0.698,0.688-1.184,0.688-1.184l0.305,0.372c3.672-4.437,8.48-12.108,11.869-18.716
		l-0.335,1.085c0.804-1.874,1.466-3.219,2.027-4.289c0.534-1.081,0.993-1.871,1.428-2.601c0.886-1.443,1.62-2.675,2.594-5.507
		c0.027,0.241-0.012,0.445-0.076,0.655c0,0,0.567-1.214,1.058-2.468c0.498-1.251,0.995-2.499,0.995-2.499l-0.022,1.27
		c0.642-3.996,5.097-10.361,3.531-8.281c0.144-1.148,0.338-2.705,0.508-4.065c0.126-1.367,0.136-2.549-0.048-2.946
		c0.75-2.841,0.952-3.166,1.168-3.196c0.217-0.032,0.43,0.231,1.023-1.523c0.509-2.091,0.572-3.372,0.67-4.836
		c0.114-1.46,0.337-3.083,0.896-5.961l0.448,0.177c0.3-2.732,0.088-4.475,0.284-8.295l0.163,1.153
		c-0.363-3.155,0.114-5.074,0.274-6.877c0.174-1.79,0.305-3.443-0.907-5.848c0.304-2.657-0.642-7.61,0.33-7.494
		c-1.683-7.752-3.465-13.682-6.533-20.87c0.927-1.708-0.655-1.541-1.79-6.223l-0.594,0.655c-2.294-5.011-4.858-10.365-7.963-15.621
		c-1.526-2.652-3.301-5.165-5.128-7.659c-2-2.455-4.02-4.939-6.469-6.913l0.305-0.839l-2.471-1.032
		c-1.198-1.217-2.513-2.297-3.868-3.397c-1.355-1.103-2.725-2.259-4.158-3.362c-2.98-2.025-5.933-4.291-9.102-6.004
		c-1.562-0.892-3.085-1.829-4.626-2.631c-1.564-0.755-3.09-1.494-4.559-2.206c-0.74-0.348-1.465-0.692-2.173-1.027
		c-0.726-0.289-1.438-0.569-2.128-0.843c-1.388-0.539-2.699-1.047-3.916-1.519c-1.654-0.459-3.845-0.644-6.185-1.121
		c-2.339-0.503-4.923-0.917-7.497-1.665l0.572,0.018c-9.202-1.647-18.933-2.433-29.04-2.763c0.625-0.36-0.383-0.582,0.753-0.829
		c-2.398,0.974-5.958,0.126-8.149,0.365l2.584,0.405c-2.82,1.035-6.976,0.571-8.523,0.207l-4.402,1.552
		c-0.309-0.036-0.789-0.091-0.874-0.212l-0.723,0.551c0,0-0.645-0.176-1.29-0.304c-0.65-0.138-1.299-0.274-1.299-0.274
		c-0.537,0.227-2.282,0.731-4.082,1.358c-1.806,0.6-3.619,1.564-4.389,2.291c-0.517-0.227-4.72,0.693-1.592-0.415
		c0,0-1.018,0.252-2.531,0.7c-1.499,0.509-3.498,1.189-5.497,1.869c-2.007,0.66-3.933,1.596-5.412,2.183
		c-1.47,0.625-2.448,1.042-2.448,1.042l2.582-0.733c0.32,0.307-0.625,1.096-1.955,1.896c-1.302,0.876-2.969,1.824-4.218,2.276
		c2.727-2.213-0.292-1.169-1.919-0.979c-1.829,1.489,2.14-0.328,1.277,0.652c-0.567,0.476-1.342,0.98-2.15,1.601
		c-0.804,0.625-1.683,1.275-2.541,1.879c-1.713,1.202-3.342,2.211-4.045,2.574c0,0,1.212-1.324,1.231-1.294
		c-1.546,1.256-2.841,1.955-4.201,2.579c-1.347,0.642-2.752,1.229-4.195,2.637c-2.246,2.891-4.579,4.264-3.042,4.77
		c-3.301,3.976-2.05,0.798-3.296,1.937c-1.317,2.105-5.951,7.721-7.125,8.086c0.116,1.838-2.015,4.636-3.775,7.467
		c-1.657,2.879-3.334,5.571-2.657,6.43l-2.428,3.712c0.197,0.144,0.468,0.504,0.564,1.242c0.09,0.736-0.005,1.839-0.307,3.546
		c-1.302,3.01-1.897,2.078-2.612,2.939l1.154,2.514c-0.609,2.249-1.144,4.627-1.655,7.095c-0.411,2.468-0.569,5.027-0.803,7.648
		c-0.179,2.617,0.013,5.254,0.055,7.948c0,1.36,0.161,2.669,0.332,3.981c0.164,1.319,0.328,2.64,0.494,3.967
		c1.375,10.535,4.621,21.373,8.724,30.817c1.106,2.009,2.539,4.015,3.911,6.147c1.431,2.098,3.145,4.128,4.759,6.26
		c1.778,2.012,3.563,4.078,5.434,6.054c0.964,0.964,1.927,1.924,2.886,2.881l1.42,1.445l1.496,1.345l-1.045-0.612
		c0,0,1.942,1.831,3.884,3.661c0.975,0.916,2.062,1.702,2.831,2.349c0.786,0.627,1.309,1.045,1.309,1.045s-1.448-1.307-2.896-2.614
		c-0.738-0.627-1.368-1.385-1.883-1.897c-0.499-0.529-0.833-0.879-0.833-0.879c0.945,0.677,1.805,1.251,2.654,1.814
		c0.884,0.521,1.742,1.055,2.637,1.723c4.4,3.777,10.137,7.59,16.734,10.527c6.578,2.936,14.032,5.037,21.393,5.346
		c2.405-0.219,3.984-0.358,5.148-0.214c1.168,0.095,1.927,0.435,2.697,0.642c0.766,0.237,1.529,0.491,2.679,0.574
		c1.148,0.041,2.689,0.1,4.953-0.592c-0.768,0.274-1.037,0.592-1.735,0.866c2.485-0.454,4.672-0.841,6.696-1.289
		c2.014-0.567,3.871-1.116,5.711-1.688c1.816-0.682,3.599-1.461,5.493-2.286c1.879-0.866,3.785-2.048,5.931-3.276
		c-0.091,2.413,5.669-3.135,5.382-1.783l0.309-1.1c2.138-0.71,6.495-3.664,6.24-2.755c0,0,0.189-0.211,0.471-0.526
		c0.257-0.342,0.599-0.798,0.942-1.256c0.672-0.907,1.342-1.813,1.342-1.813l0.831,0.37c0.552-0.483,1.183-1.037,1.869-1.635
		c0.653-0.632,1.297-1.372,1.997-2.116c1.362-1.518,2.946-3.078,4.183-4.773c1.287-1.657,2.637-3.181,3.702-4.477
		c1.035-1.314,1.972-2.305,2.732-2.733c3.208-6.424,6.862-14.747,9.071-23.666l0.481-1.669l0.365-1.692l0.726-3.4l0.728-3.405
		c0.174-1.141,0.348-2.282,0.521-3.417c0.383-2.264,0.552-4.546,0.808-6.77c0.131-2.266,0.343-4.46,0.328-6.664
		c-0.64-2.445-0.937-7.56-1.645-11.63c0,0,0.038-0.277,0.046-0.703c0.013-0.428,0.03-0.997,0.048-1.566
		c0.027-1.151,0.053-2.302,0.053-2.302c-1.267-4.206-3.918-8.175-5.145-12.159c0.114-0.027,0.265,0.09,0.448,0.332
		c-2.087-4.019-4.178-8.115-7.724-10.841c-3.256-3.894-6.969-7.301-5.15-7.054c-0.74,0.511-2.788-1.29-4.923-2.876
		c-1.038-0.853-2.103-1.614-2.894-2.218c-0.789-0.604-1.32-0.995-1.32-0.995s-0.924-0.441-2.67-1.279
		c-0.879-0.391-1.98-0.816-3.277-1.334c-1.304-0.448-2.813-1-4.516-1.455c-6.802-1.97-16.78-3.279-28.312-1.761
		c-5.772,0.718-11.914,2.159-18.248,4.433c-6.311,2.337-12.836,5.487-19.162,10.084c-6.266,4.588-12.577,10.593-17.047,19.193
		c-2.203,4.274-3.835,9.228-4.39,14.481c-0.577,5.244-0.022,10.695,1.461,15.622c1.471,4.949,3.778,9.363,6.414,13.214
		c0.64,1.01,1.342,1.882,2.033,2.79l1.045,1.35l0.967,1.153c1.27,1.506,2.546,3.01,3.951,4.496c2.727,2.982,5.72,5.891,9.106,8.648
		c3.382,2.748,7.144,5.384,11.728,7.51c4.55,2.09,10.124,3.724,16.34,3.437c3.1-0.161,6.223-0.844,9.129-1.947
		c2.861-1.163,5.477-2.689,7.686-4.435c4.395-3.513,7.379-7.576,9.568-11.506c2.181-3.954,3.659-7.875,4.739-11.711
		c2.115-7.678,2.705-15.045,2.209-22.194c-0.269-3.576-0.834-7.1-1.834-10.598c-0.224-0.862-0.547-1.755-0.843-2.619l-0.236-0.662
		l-0.309-0.775l-0.644-1.519c-0.96-2.11-2.14-4.153-3.498-5.895c-2.718-3.505-6.158-6.074-9.877-7.294
		c-3.709-1.249-7.52-1.226-10.874-0.415c-3.324,0.809-6.425,2.339-8.668,3.916c-0.29,0.197-0.579,0.393-0.864,0.587l-0.655,0.531
		c-0.42,0.352-0.831,0.697-1.232,1.035c-0.809,0.675-1.436,1.375-2.093,2.023c-0.576,0.887-1.645,2.302-2.398,3.379
		c-0.692,1.103-0.98,1.899,0.03,1.604c-1.302,1.403-2.478,2.168-3.311,2.738c-0.849,0.561-1.393,0.902-1.353,1.438
		c3.929-3.272,0.441,2.538,4.559-0.257l-2.019,2.357c-0.03,0.854,2.468-3.476,2.68-2.189l-0.405-1.685
		c1.999-1.614,3.33-2.254,4.331-2.441c0.74-0.99,1.154-2.101,2.073-3.349c0.504-0.602,1.076-1.231,2.002-1.876
		c1.022-0.644,2.291-1.329,4.054-1.765c0,0-0.449,0.211-0.897,0.423c-0.446,0.212-0.881,0.438-0.881,0.438
		c2.637-1.231,3.579-1.143,3.909-0.962c0.338,0.192,0.158,0.576,0.717,0.541l-1.146,0.328c0,0,0.28-0.035,0.702-0.086
		c0.416-0.056,0.967-0.119,1.523-0.103c0.554,0.007,1.091-0.023,1.499,0.025c0.403,0.048,0.672,0.081,0.672,0.081
		c-0.814-0.129-1.766,0.06-2.677,0.265c-0.894,0.284-1.742,0.642-2.363,1c-1.232,0.765-1.678,1.274-0.44,0.693
		c2.806-0.831,2.453-0.685,1.876-0.721c-0.566,0.005-1.383-0.012,0.798-0.76c2.803-0.599,1.992,0.405,1.887,0.856
		c0-0.002,0.294-0.027,0.736-0.061c0.443-0.032,1.032-0.101,1.622-0.033c0.594,0.018,1.181,0.08,1.612,0.197
		c0.435,0.09,0.725,0.149,0.725,0.149c-0.186,0.315-0.927,0.144-1.428,0.028c-0.514-0.041-0.75-0.095,0.088,0.38
		c0,0,1.46,0.041,2.863,0.513c1.393,0.468,2.64,1.309,2.639,1.31c-0.098,1.106,1.146,1.949,2.269,3.334
		c1.134,1.324,2.257,3.17,1.866,4.7c-1.858-3.581-0.385,0.566-1.183,0.163c0,0,0.05,0.136,0.139,0.373
		c0.091,0.237,0.221,0.576,0.342,1.008c0.279,0.849,0.577,2.009,0.831,3.181c0.509,2.35,0.682,4.767,0.683,4.767
		c-0.161,0.919-0.77-2.461-0.542-1.023c-0.32,1.824,0.625,2.922,0.649,3.916c-0.245,0.426-0.221,2.223-0.398,3.876
		c-0.179,1.654-0.506,3.146-1.085,2.946c-0.77,3.141-0.589,3.84-0.317,4.535c0.254,0.682,0.59,1.362-0.519,4.219
		c-0.846,0.589,0.987-4.697-0.358-2.269c0,0-0.284,1.526-0.66,3.035c-0.206,0.748-0.411,1.496-0.566,2.058
		c-0.177,0.554-0.295,0.922-0.295,0.922c-0.124-0.652-0.657-1.501,0.141-3.637c-2.748,7.754-7.435,12.702-11.834,14.503
		c-1.093,0.459-2.145,0.76-3.18,0.867c-1.022,0.174-2.038,0.113-3.087,0.035c-2.101-0.265-4.477-0.816-7.437-2.105
		c-0.602-0.813-0.239-0.778,0.42-0.536c0.66,0.211,1.63,0.557,2.259,0.508c-2.028-0.503-3.795-1.468-5.246-2.581
		c-1.46-1.125-2.639-2.378-3.715-3.684c-2.151-2.647-3.916-5.399-6.911-8.724l-0.632,0.335c-0.41-0.698-0.833-1.393-1.272-2.087
		l-0.668-1.038l-0.546-0.949c-0.778-1.249-1.428-2.5-2.063-3.734c-1.236-2.483-2.103-4.946-2.465-7.336
		c-0.37-2.392-0.274-4.749,0.494-7.117c0.723-2.364,2.063-4.74,3.981-6.832c0,0-0.307,0.192-0.612,0.386
		c-0.285,0.206-0.569,0.41-0.569,0.41c0.3-1.657,1.929-3.792,3.224-5.42c0.232,0.017,0.237,0.546,0.473,0.723
		c0.232,0.176,0.673,0.015,1.909-1.277c-0.707,0.304-2.015,1.133-1.917,0.587c2.229-1.523,5.15-3.435,8.746-5.317
		c3.574-1.901,7.872-3.699,12.534-5.077c4.664-1.367,9.711-2.277,14.625-2.456c4.908-0.191,9.675,0.34,13.654,1.571
		c5.513,1.207,10.379,3.765,13.911,7.523c3.563,3.735,5.866,8.804,6.994,14.672c1.139,5.868,1.013,12.438,0.267,19.009
		c-0.77,6.578-2.388,12.91-4.36,18.762c0.69-1.735,1.199-2.158,1.476-1.758c0.313,0.418,0.171,1.557-0.529,2.836
		c-1.402,1.569-2.307,3.146-3.253,4.578c-0.911,1.448-1.433,3.06-2.269,4.443c-1.455,2.908-3.103,5.886-6.352,7.928
		c-4.178,5.258-9.719,8.543-15.393,10.612c-5.73,2.077-11.587,3.103-17.974,4.132l-0.229-0.846
		c-1.863-0.516-2.395,0.083-4.397-0.008l0.073-0.224c-1.158-0.255-2.382-0.44-3.614-0.579c-1.231-0.173-2.45-0.463-3.626-0.647
		c-1.183-0.158-2.269-0.489-3.233-0.78c-0.964-0.29-1.796-0.574-2.418-0.871l-0.486,0.808c-2.715-1.047-1.11-1.251-4.065-1.878
		l0.274-0.393c0,0-0.222-0.027-0.542-0.109c-0.323-0.073-0.756-0.173-1.188-0.27c-0.876-0.197-1.751-0.395-1.751-0.395
		c0.265-0.325-0.055-0.725-0.707-1.164c-0.645-0.454-1.566-1.063-2.604-1.637c-0.519-0.289-1.055-0.589-1.586-0.882
		c-0.526-0.305-1-0.672-1.46-0.99c-0.909-0.655-1.669-1.261-2.023-1.745c-0.831-0.456-1.7-1.211-2.762-1.951
		c-0.522-0.383-1.073-0.786-1.644-1.204c-0.559-0.433-1.078-0.949-1.64-1.443c-2.284-1.941-4.43-4.413-6.067-6.787
		c0.048-0.708-1.008-2.443-2.209-4.568c-0.561-1.086-1.169-2.267-1.766-3.425c-0.642-1.128-1.01-2.378-1.433-3.407
		c-2.075-3.821-3.909-8.812-5.301-14.362c-0.3-1.42-0.604-2.858-0.909-4.302c-0.267-1.456-0.415-2.941-0.629-4.413
		c-0.539-2.982-0.411-5.807-0.527-8.595l-1.05,0.209c-0.093-0.013,0.017-2.912,0.017-2.912c0.229,0.048,0.373-0.333,0.463,0.106
		c0.692-1.085,0.582-2.742,0.634-4.395c0.111-1.634,0.151-3.319,0.677-4.377c-1.146,1.247-0.433,1.947-0.703,3.531
		c-0.872,2.256-1.516-0.078-0.534-3.181l0.219,0.104c0,0-0.06-0.566-0.118-1.131c-0.035-0.561-0.013-1.111-0.013-1.111
		c0.874-0.061,1.735-1.846,2.581-1.863c0.395-2.264,1.199-4.185,1.688-6.153c0.214-1,0.675-1.869,1.003-2.795
		c0.35-0.922,0.697-1.834,1.045-2.748c0.431-0.876,0.902-1.74,1.365-2.627c0.501-0.864,0.872-1.831,1.534-2.652
		c1.244-1.688,2.446-3.553,4.263-5.205c0.003,0.677,1.136-0.639,2.249-1.811c1.242-1.071,2.43-1.999,2.247-0.755
		c3.898-4.362-1.577-0.31-0.343-2.966c1.198-1.161,2.46-2.476,3.03-2.223c-0.39,0.781,1.674-0.048,0.685,0.889
		c0,0,3.068-2.528,3.14-2.45c0.391-0.101-0.229,0.556-0.541,0.877c1.597-1.261,3.165-2.387,4.782-3.306
		c1.68-0.831,3.307-1.596,4.939-2.282c1.688-0.597,3.339-1.189,4.963-1.878c1.687-0.572,3.359-1.222,5.039-2.091
		c0.345-0.738-2.846,0.866-2.528,0.131c1.68-0.937,2.952-1.484,4.039-1.72c1.073-0.274,1.909-0.368,2.728-0.448
		c1.625-0.214,3.236-0.126,6.633-1.309l-1.28,1.096c2.105-1.071,3.029-1.856,6.875-1.786c0.778,0.851-3.07,1.227-4.772,1.957
		c1.269-0.207,3.511-0.561,5.175-0.99c1.66-0.441,2.791-0.71,1.74-1.081c3.097-0.547,4.289,0.114,5.971,0.32
		c0.046-0.287-2.939-0.423-1.141-1.015c1.071,0.058,2.291,0.172,3.589,0.204c1.299,0.073,2.682-0.008,4.093,0.134
		c1.41,0.08,2.849,0.164,4.263,0.244c1.411,0.06,2.781,0.299,4.072,0.428c-0.07,0.226,0.252,0.615-0.207,0.682
		C164.056,64.66,163.337,66.816,168.927,67.466z"/>
	<path fill="#A47B8F" d="M123.961,254.416l2.15,0.095c-0.008-0.207,0.086-0.451,1.06-0.7L123.961,254.416z"/>
	<path fill="#A47B8F" d="M212.324,206.163c0.104-0.269,0.212-0.529,0.269-0.794C212.306,205.824,212.286,206.032,212.324,206.163z"
		/>
	<path fill="#A47B8F" d="M224.226,183.697c-0.61,1.703,0.32,0.378,0.93-0.313C225.002,183.266,224.778,183.205,224.226,183.697z"/>
	<path fill="#A47B8F" d="M68.648,238.15c0.376,0.151,0.645,0.186,0.703-0.013C68.822,237.976,68.655,238.014,68.648,238.15z"/>
	<path fill="#A47B8F" d="M29.519,89.448c-0.128,0.176-0.231,0.343-0.396,0.556C29.235,89.915,29.371,89.716,29.519,89.448z"/>
	<path fill="#A47B8F" d="M24.944,97.658c-0.149,0.433-0.345,0.995-0.491,1.839C24.744,98.716,24.898,98.142,24.944,97.658z"/>
	<path fill="#A47B8F" d="M104.686,254.569c0.592,0.118,1.196,0.131,1.733,0.041C105.504,254.456,105.02,254.516,104.686,254.569z"/>
	<path fill="#A47B8F" d="M24.135,101.423l-0.726,2.232c0.056,0.028,0.093,0.068,0.164,0.088L24.135,101.423z"/>
	<path fill="#A47B8F" d="M30.789,86.806c-0.388,0.819-0.877,1.951-1.27,2.642C30.217,88.481,30.584,87.646,30.789,86.806z"/>
	<path fill="#A47B8F" d="M28.718,192.556c0.045,0.058,0.08,0.138,0.129,0.214C30.018,194.236,29.361,193.286,28.718,192.556z"/>
	<path fill="#A47B8F" d="M23.148,111.699c-0.03,0.088-0.065,0.197-0.098,0.295l0.114,0.718L23.148,111.699z"/>
	<path fill="#A47B8F" d="M35.415,77.91c-0.182,0.4-0.33,0.775-0.378,1.106c0.191-0.305,0.413-0.663,0.697-1.118
		C35.568,77.955,35.481,77.944,35.415,77.91z"/>
	<path fill="#A47B8F" d="M20.36,158.679c-0.441-0.6-0.712-0.816-0.892-0.816C19.592,158.633,19.823,159.099,20.36,158.679z"/>
</g>
</svg>
